<svg width="36" height="36" viewBox="0 0 36 36" fill="none" xmlns="http://www.w3.org/2000/svg">
<path d="M13.2358 27.8821L13.3652 27.3991C13.2471 27.3675 13.1215 27.3802 13.0122 27.4349L13.2358 27.8821ZM6 31.5L5.50503 31.4293C5.47872 31.6134 5.55678 31.7969 5.70764 31.9056C5.85851 32.0144 6.05727 32.0304 6.22361 31.9472L6 31.5ZM6.97984 24.6411L7.47482 24.7118C7.49887 24.5435 7.4357 24.3744 7.30715 24.2631L6.97984 24.6411ZM18 29C26.4505 29 33.5 23.5019 33.5 16.5H32.5C32.5 22.7529 26.118 28 18 28V29ZM13.1065 28.3651C14.6457 28.7772 16.2912 29 18 29V28C16.378 28 14.8195 27.7885 13.3652 27.3991L13.1065 28.3651ZM6.22361 31.9472L13.4594 28.3293L13.0122 27.4349L5.77639 31.0528L6.22361 31.9472ZM6.48487 24.5704L5.50503 31.4293L6.49497 31.5707L7.47482 24.7118L6.48487 24.5704ZM2.5 16.5C2.5 19.8112 4.09215 22.802 6.65254 25.0191L7.30715 24.2631C4.92673 22.2019 3.5 19.4727 3.5 16.5H2.5ZM18 4C9.54947 4 2.5 9.49809 2.5 16.5H3.5C3.5 10.2471 9.88199 5 18 5V4ZM33.5 16.5C33.5 9.49809 26.4505 4 18 4V5C26.118 5 32.5 10.2471 32.5 16.5H33.5Z" fill="white"/>
</svg>
