<svg width="36" height="36" viewBox="0 0 36 36" fill="none" xmlns="http://www.w3.org/2000/svg">
<path d="M15 18.3921H15.5C15.5 18.2743 15.4584 18.1604 15.3827 18.0702L15 18.3921ZM5.92483 7.60141L6.30749 7.27959H6.30749L5.92483 7.60141ZM30.1601 7.60141L29.7775 7.27959L30.1601 7.60141ZM21 18.4931L20.6173 18.1713C20.5415 18.2614 20.5 18.3754 20.5 18.4931H21ZM21 25.5L21.3 25.9C21.4259 25.8056 21.5 25.6574 21.5 25.5H21ZM15 30H14.5C14.5 30.1894 14.607 30.3625 14.7764 30.4472C14.9458 30.5319 15.1485 30.5137 15.3 30.4L15 30ZM15.3827 18.0702L6.30749 7.27959L5.54217 7.92324L14.6173 18.7139L15.3827 18.0702ZM6.30749 7.27959C6.03395 6.95434 6.26517 6.45776 6.69015 6.45776V5.45776C5.41522 5.45776 4.72156 6.94751 5.54217 7.92324L6.30749 7.27959ZM6.69015 6.45776H29.3948V5.45776H6.69015V6.45776ZM29.3948 6.45776C29.8198 6.45776 30.051 6.95434 29.7775 7.27959L30.5428 7.92324C31.3634 6.94751 30.6698 5.45776 29.3948 5.45776V6.45776ZM29.7775 7.27959L20.6173 18.1713L21.3827 18.8149L30.5428 7.92324L29.7775 7.27959ZM20.5 18.4931V25.5H21.5V18.4931H20.5ZM20.7 25.1L14.7 29.6L15.3 30.4L21.3 25.9L20.7 25.1ZM15.5 30V18.3921H14.5V30H15.5Z" fill="black"/>
</svg>
