<svg width="22" height="19" viewBox="0 0 22 19" fill="none" xmlns="http://www.w3.org/2000/svg">
<path d="M10.7337 18.2727L1.9723 9.51136C1.27344 8.8125 0.807528 8 0.574574 7.07386C0.347301 6.14773 0.350142 5.22727 0.583097 4.3125C0.816051 3.39205 1.27912 2.59091 1.9723 1.90909C2.68253 1.21023 3.49219 0.747159 4.40128 0.519886C5.31605 0.286932 6.22798 0.286932 7.13707 0.519886C8.05185 0.752841 8.86435 1.21591 9.57457 1.90909L10.7337 3.03409L11.8928 1.90909C12.6087 1.21591 13.4212 0.752841 14.3303 0.519886C15.2393 0.286932 16.1484 0.286932 17.0575 0.519886C17.9723 0.747159 18.7848 1.21023 19.495 1.90909C20.1882 2.59091 20.6513 3.39205 20.8842 4.3125C21.1172 5.22727 21.1172 6.14773 20.8842 7.07386C20.657 8 20.1939 8.8125 19.495 9.51136L10.7337 18.2727Z" fill="black"/>
</svg>
