<svg width="260" height="55" viewBox="0 0 260 55" fill="none" xmlns="http://www.w3.org/2000/svg">
<g clip-path="url(#clip0_2377_8385)">
<path d="M232.487 0.6875H27.5132C12.698 0.6875 0.687832 12.6919 0.687832 27.5C0.687832 42.3081 12.698 54.3125 27.5132 54.3125H232.487C247.302 54.3125 259.312 42.3081 259.312 27.5C259.312 12.6919 247.302 0.6875 232.487 0.6875Z" fill="white"/>
<mask id="mask0_2377_8385" style="mask-type:luminance" maskUnits="userSpaceOnUse" x="16" y="13" width="29" height="29">
<path d="M44.0212 13.75H16.5079V41.25H44.0212V13.75Z" fill="white"/>
</mask>
<g mask="url(#mask0_2377_8385)">
<path d="M43.4709 27.8126C43.4709 26.8375 43.3834 25.9001 43.2208 25H30.2645V30.3188H37.6681C37.3492 32.0375 36.3801 33.4938 34.9231 34.4688V37.9188H39.369C41.9702 35.5251 43.4709 32 43.4709 27.8126Z" fill="#4285F4"/>
<path d="M30.2645 41.25C33.9788 41.25 37.0928 40.0187 39.3688 37.9188L34.9229 34.4688C33.6912 35.2938 32.1154 35.7812 30.2645 35.7812C26.6815 35.7812 23.6489 33.3624 22.567 30.1125H17.9711V33.675C20.2347 38.1688 24.8869 41.25 30.2645 41.25Z" fill="#34A853"/>
<path d="M22.567 30.1125C22.2919 29.2875 22.1356 28.4063 22.1356 27.5C22.1356 26.5937 22.2919 25.7125 22.567 24.8875V21.325H17.9711C17.0395 23.1813 16.5079 25.2813 16.5079 27.5C16.5079 29.7187 17.0395 31.8187 17.9711 33.675L22.567 30.1125Z" fill="#FBBC04"/>
<path d="M30.2645 19.2188C32.2842 19.2188 34.0976 19.9125 35.5233 21.275L39.469 17.3312C37.0866 15.1125 33.9725 13.75 30.2645 13.75C24.8869 13.75 20.2347 16.8312 17.9711 21.325L22.567 24.8875C23.6489 21.6376 26.6815 19.2188 30.2645 19.2188Z" fill="#E94235"/>
</g>
<path d="M67.2569 29.9197H69.6079C69.5327 30.8158 69.2819 31.6147 68.8556 32.3165C68.4293 33.0121 67.8306 33.5604 67.0595 33.9614C66.2883 34.3625 65.3511 34.563 64.2477 34.563C63.4013 34.563 62.6396 34.4125 61.9625 34.1118C61.2854 33.8048 60.7056 33.3724 60.2227 32.8147C59.74 32.2508 59.3702 31.5708 59.1131 30.775C58.8624 29.9793 58.737 29.0894 58.737 28.1055V26.9683C58.737 25.9845 58.8655 25.0947 59.1225 24.2989C59.3858 23.503 59.762 22.8231 60.2511 22.2592C60.74 21.689 61.3262 21.2534 62.0096 20.9527C62.6992 20.6518 63.4734 20.5015 64.3323 20.5015C65.4232 20.5015 66.3447 20.702 67.0971 21.1031C67.8494 21.504 68.4324 22.0586 68.8462 22.7667C69.2662 23.4748 69.5233 24.2864 69.6173 25.2011H67.2664C67.2037 24.6121 67.0657 24.1077 66.8526 23.6878C66.6457 23.268 66.3385 22.9485 65.9311 22.7292C65.5234 22.5035 64.9906 22.3908 64.3323 22.3908C63.7931 22.3908 63.3229 22.491 62.9218 22.6915C62.5205 22.8921 62.1851 23.1866 61.9155 23.5751C61.6459 23.9636 61.4421 24.443 61.3043 25.0132C61.1726 25.5772 61.1067 26.2226 61.1067 26.9494V28.1055C61.1067 28.7948 61.1663 29.4216 61.2854 29.9855C61.4109 30.5432 61.599 31.0225 61.8497 31.4236C62.1067 31.8247 62.4327 32.1349 62.8277 32.3542C63.2226 32.5735 63.696 32.6831 64.2477 32.6831C64.9186 32.6831 65.4609 32.5766 65.8745 32.3635C66.2946 32.1505 66.6112 31.8403 66.8244 31.433C67.0438 31.0194 67.188 30.515 67.2569 29.9197ZM71.0938 29.4027V29.1866C71.0938 28.4534 71.2004 27.7735 71.4135 27.1469C71.6267 26.514 71.9339 25.9656 72.335 25.502C72.7426 25.032 73.2379 24.6686 73.8209 24.4116C74.4102 24.1484 75.0748 24.0169 75.8145 24.0169C76.5605 24.0169 77.2251 24.1484 77.8081 24.4116C78.3974 24.6686 78.8958 25.032 79.3034 25.502C79.7109 25.9656 80.0213 26.514 80.2344 27.1469C80.4476 27.7735 80.5541 28.4534 80.5541 29.1866V29.4027C80.5541 30.1359 80.4476 30.8158 80.2344 31.4424C80.0213 32.069 79.7109 32.6173 79.3034 33.0873C78.8958 33.551 78.4006 33.9144 77.8176 34.1775C77.2346 34.4345 76.5732 34.563 75.8333 34.563C75.0873 34.563 74.4196 34.4345 73.8302 34.1775C73.2472 33.9144 72.752 33.551 72.3445 33.0873C71.9369 32.6173 71.6267 32.069 71.4135 31.4424C71.2004 30.8158 71.0938 30.1359 71.0938 29.4027ZM73.36 29.1866V29.4027C73.36 29.8602 73.4071 30.2925 73.5012 30.6998C73.5951 31.1072 73.7425 31.4643 73.9432 31.7713C74.1437 32.0785 74.4009 32.3196 74.7142 32.4951C75.0278 32.6705 75.4007 32.7583 75.8333 32.7583C76.2533 32.7583 76.6171 32.6705 76.9242 32.4951C77.2376 32.3196 77.4947 32.0785 77.6953 31.7713C77.8959 31.4643 78.0432 31.1072 78.1373 30.6998C78.2376 30.2925 78.2878 29.8602 78.2878 29.4027V29.1866C78.2878 28.7353 78.2376 28.3092 78.1373 27.9082C78.0432 27.501 77.8928 27.1406 77.6859 26.8272C77.4852 26.514 77.2283 26.2695 76.9147 26.0941C76.6076 25.9124 76.2408 25.8215 75.8145 25.8215C75.3882 25.8215 75.0184 25.9124 74.7049 26.0941C74.3977 26.2695 74.1437 26.514 73.9432 26.8272C73.7425 27.1406 73.5951 27.501 73.5012 27.9082C73.4071 28.3092 73.36 28.7353 73.36 29.1866ZM84.7013 26.3761V34.375H82.4349V24.2048H84.5696L84.7013 26.3761ZM84.2968 28.9139L83.5633 28.9046C83.5696 28.1839 83.6699 27.5228 83.8643 26.9213C84.0649 26.3197 84.3407 25.8027 84.6919 25.3704C85.0492 24.938 85.4755 24.6059 85.9707 24.3741C86.4661 24.1359 87.0177 24.0169 87.6259 24.0169C88.1148 24.0169 88.5568 24.0857 88.9518 24.2237C89.3531 24.3552 89.6948 24.5714 89.9768 24.8722C90.2653 25.1729 90.4847 25.5645 90.6352 26.0472C90.7855 26.5233 90.8608 27.1092 90.8608 27.8048V34.375H88.585V27.7953C88.585 27.3067 88.5129 26.9213 88.3688 26.6393C88.2308 26.3511 88.0271 26.1474 87.7576 26.0283C87.4943 25.9029 87.1651 25.8404 86.7701 25.8404C86.3814 25.8404 86.0335 25.9218 85.7263 26.0847C85.4191 26.2476 85.1589 26.4701 84.9457 26.7521C84.7388 27.034 84.579 27.3599 84.4662 27.7296C84.3534 28.0994 84.2968 28.4941 84.2968 28.9139ZM97.8386 24.2048V25.8591H92.1022V24.2048H97.8386ZM93.7572 21.714H96.0236V31.5646C96.0236 31.8779 96.0675 32.1192 96.1553 32.2883C96.2493 32.4512 96.3777 32.561 96.5407 32.6173C96.7038 32.6737 96.895 32.7019 97.1144 32.7019C97.2712 32.7019 97.4216 32.6925 97.5659 32.6737C97.7101 32.6549 97.826 32.6362 97.9138 32.6173L97.9232 34.3468C97.7351 34.4032 97.5157 34.4534 97.2649 34.4972C97.0205 34.5411 96.7383 34.563 96.4186 34.563C95.8982 34.563 95.4375 34.4721 95.0362 34.2904C94.6349 34.1025 94.3215 33.7985 94.0958 33.3787C93.87 32.9589 93.7572 32.4012 93.7572 31.7056V21.714ZM102.014 24.2048V34.375H99.7382V24.2048H102.014ZM99.5877 21.5354C99.5877 21.1908 99.7005 20.9056 99.9263 20.68C100.158 20.4482 100.478 20.3323 100.885 20.3323C101.287 20.3323 101.603 20.4482 101.835 20.68C102.067 20.9056 102.183 21.1908 102.183 21.5354C102.183 21.8738 102.067 22.1558 101.835 22.3813C101.603 22.6069 101.287 22.7197 100.885 22.7197C100.478 22.7197 100.158 22.6069 99.9263 22.3813C99.7005 22.1558 99.5877 21.8738 99.5877 21.5354ZM106.744 26.3761V34.375H104.478V24.2048H106.612L106.744 26.3761ZM106.34 28.9139L105.606 28.9046C105.612 28.1839 105.713 27.5228 105.907 26.9213C106.108 26.3197 106.384 25.8027 106.735 25.3704C107.092 24.938 107.518 24.6059 108.014 24.3741C108.509 24.1359 109.061 24.0169 109.669 24.0169C110.158 24.0169 110.6 24.0857 110.995 24.2237C111.396 24.3552 111.738 24.5714 112.02 24.8722C112.308 25.1729 112.527 25.5645 112.678 26.0472C112.828 26.5233 112.904 27.1092 112.904 27.8048V34.375H110.628V27.7953C110.628 27.3067 110.556 26.9213 110.412 26.6393C110.274 26.3511 110.07 26.1474 109.8 26.0283C109.537 25.9029 109.208 25.8404 108.813 25.8404C108.424 25.8404 108.076 25.9218 107.769 26.0847C107.462 26.2476 107.202 26.4701 106.989 26.7521C106.782 27.034 106.622 27.3599 106.509 27.7296C106.396 28.0994 106.34 28.4941 106.34 28.9139ZM121.339 31.9781V24.2048H123.615V34.375H121.471L121.339 31.9781ZM121.659 29.8633L122.42 29.8445C122.42 30.5275 122.345 31.1572 122.195 31.7338C122.044 32.304 121.812 32.8021 121.499 33.2283C121.185 33.6482 120.784 33.9771 120.295 34.2152C119.806 34.4471 119.22 34.563 118.537 34.563C118.041 34.563 117.587 34.4909 117.173 34.3468C116.759 34.2027 116.402 33.9802 116.101 33.6794C115.806 33.3787 115.578 32.9871 115.415 32.5045C115.252 32.022 115.17 31.4456 115.17 30.775V24.2048H117.436V30.7938C117.436 31.1636 117.48 31.4737 117.568 31.7244C117.656 31.9687 117.775 32.1662 117.925 32.3165C118.076 32.4669 118.251 32.5735 118.452 32.6362C118.653 32.6987 118.866 32.7301 119.091 32.7301C119.737 32.7301 120.245 32.6048 120.615 32.3542C120.991 32.0972 121.258 31.7526 121.414 31.3202C121.577 30.8879 121.659 30.4022 121.659 29.8633ZM130.423 34.563C129.671 34.563 128.991 34.4409 128.383 34.1964C127.781 33.9457 127.267 33.598 126.84 33.153C126.42 32.7082 126.097 32.1849 125.872 31.5833C125.646 30.9818 125.533 30.3332 125.533 29.6377V29.2617C125.533 28.4659 125.649 27.7453 125.881 27.0999C126.113 26.4544 126.436 25.9029 126.85 25.4456C127.263 24.9818 127.752 24.6278 128.317 24.3834C128.881 24.1391 129.492 24.0169 130.15 24.0169C130.878 24.0169 131.514 24.1391 132.06 24.3834C132.605 24.6278 133.056 24.9725 133.414 25.4174C133.777 25.856 134.047 26.3792 134.222 26.9871C134.404 27.5949 134.495 28.2653 134.495 28.9985V29.9666H126.633V28.3405H132.257V28.1619C132.244 27.7546 132.163 27.3724 132.012 27.0153C131.868 26.6581 131.646 26.3699 131.345 26.1506C131.044 25.9311 130.643 25.8215 130.141 25.8215C129.765 25.8215 129.43 25.9029 129.135 26.0659C128.847 26.2226 128.605 26.4513 128.411 26.7521C128.216 27.0529 128.066 27.4163 127.959 27.8424C127.859 28.2623 127.809 28.7353 127.809 29.2617V29.6377C127.809 30.0827 127.868 30.4961 127.988 30.8784C128.113 31.2544 128.295 31.5833 128.533 31.8654C128.771 32.1474 129.06 32.3698 129.398 32.5328C129.737 32.6894 130.122 32.7678 130.555 32.7678C131.1 32.7678 131.586 32.658 132.012 32.4387C132.439 32.2194 132.809 31.9092 133.122 31.5081L134.316 32.6644C134.097 32.9839 133.812 33.291 133.461 33.5855C133.11 33.8737 132.68 34.1087 132.172 34.2904C131.671 34.4721 131.088 34.563 130.423 34.563ZM143.824 32.1192L146.175 24.2048H147.624L147.227 26.5735L144.859 34.375H143.56L143.824 32.1192ZM142.441 24.2048L144.275 32.1567L144.425 34.375H142.978L140.223 24.2048H142.441ZM149.823 32.0628L151.601 24.2048H153.811L151.064 34.375H149.617L149.823 32.0628ZM147.867 24.2048L150.191 32.0251L150.482 34.375H149.184L146.786 26.564L146.391 24.2048H147.867ZM157.779 24.2048V34.375H155.503V24.2048H157.779ZM155.353 21.5354C155.353 21.1908 155.466 20.9056 155.692 20.68C155.923 20.4482 156.244 20.3323 156.651 20.3323C157.052 20.3323 157.369 20.4482 157.6 20.68C157.832 20.9056 157.948 21.1908 157.948 21.5354C157.948 21.8738 157.832 22.1558 157.6 22.3813C157.369 22.6069 157.052 22.7197 156.651 22.7197C156.244 22.7197 155.923 22.6069 155.692 22.3813C155.466 22.1558 155.353 21.8738 155.353 21.5354ZM164.927 24.2048V25.8591H159.19V24.2048H164.927ZM160.845 21.714H163.111V31.5646C163.111 31.8779 163.155 32.1192 163.243 32.2883C163.336 32.4512 163.466 32.561 163.628 32.6173C163.792 32.6737 163.983 32.7019 164.202 32.7019C164.359 32.7019 164.51 32.6925 164.653 32.6737C164.797 32.6549 164.914 32.6362 165.001 32.6173L165.011 34.3468C164.822 34.4032 164.603 34.4534 164.353 34.4972C164.108 34.5411 163.826 34.563 163.506 34.563C162.986 34.563 162.525 34.4721 162.124 34.2904C161.723 34.1025 161.409 33.7985 161.183 33.3787C160.958 32.9589 160.845 32.4012 160.845 31.7056V21.714ZM168.913 19.9375V34.375H166.656V19.9375H168.913ZM168.519 28.9139L167.785 28.9046C167.791 28.2028 167.888 27.5542 168.077 26.9588C168.271 26.3636 168.541 25.8466 168.886 25.4079C169.237 24.963 169.656 24.6216 170.146 24.3834C170.634 24.1391 171.176 24.0169 171.772 24.0169C172.274 24.0169 172.725 24.0857 173.127 24.2237C173.534 24.3614 173.885 24.5839 174.179 24.8909C174.474 25.1918 174.697 25.5865 174.848 26.0754C175.005 26.5578 175.082 27.1469 175.082 27.8424V34.375H172.806V27.8237C172.806 27.3349 172.735 26.9463 172.59 26.6581C172.453 26.3699 172.249 26.1631 171.98 26.0377C171.71 25.9061 171.38 25.8404 170.992 25.8404C170.585 25.8404 170.224 25.9218 169.911 26.0847C169.603 26.2476 169.347 26.4701 169.139 26.7521C168.933 27.034 168.776 27.3599 168.668 27.7296C168.568 28.0994 168.519 28.4941 168.519 28.9139ZM192.912 27.3819V32.6078C192.718 32.8648 192.414 33.1468 192 33.4539C191.592 33.7546 191.05 34.0147 190.374 34.2341C189.697 34.4534 188.854 34.563 187.844 34.563C186.985 34.563 186.199 34.4189 185.483 34.1307C184.768 33.8361 184.152 33.4069 183.63 32.8428C183.117 32.279 182.718 31.5928 182.436 30.7845C182.154 29.9698 182.014 29.0423 182.014 28.0022V27.0529C182.014 26.019 182.142 25.0977 182.399 24.2894C182.662 23.4748 183.039 22.7855 183.527 22.2215C184.017 21.6576 184.606 21.2315 185.295 20.9432C185.991 20.6488 186.778 20.5015 187.655 20.5015C188.778 20.5015 189.705 20.6895 190.44 21.0654C191.178 21.4352 191.749 21.949 192.151 22.6069C192.551 23.2649 192.806 24.0169 192.912 24.8628H190.599C190.524 24.3866 190.376 23.9605 190.156 23.5844C189.944 23.2085 189.636 22.914 189.236 22.701C188.84 22.4817 188.327 22.3719 187.693 22.3719C187.148 22.3719 186.668 22.4753 186.255 22.6821C185.841 22.8889 185.496 23.1928 185.22 23.5939C184.951 23.9949 184.747 24.4837 184.608 25.0602C184.471 25.6367 184.402 26.2947 184.402 27.034V28.0022C184.402 28.7541 184.48 29.4216 184.637 30.0043C184.799 30.587 185.032 31.079 185.333 31.4799C185.64 31.881 186.013 32.1849 186.452 32.3917C186.89 32.5923 187.386 32.6925 187.937 32.6925C188.477 32.6925 188.918 32.6487 189.264 32.561C189.609 32.4669 189.881 32.3573 190.082 32.2319C190.288 32.1003 190.448 31.9751 190.561 31.856V29.1395H187.712V27.3819H192.912ZM194.868 29.4027V29.1866C194.868 28.4534 194.975 27.7735 195.188 27.1469C195.402 26.514 195.708 25.9656 196.11 25.502C196.517 25.032 197.013 24.6686 197.596 24.4116C198.185 24.1484 198.849 24.0169 199.589 24.0169C200.335 24.0169 200.999 24.1484 201.583 24.4116C202.173 24.6686 202.671 25.032 203.078 25.502C203.485 25.9656 203.796 26.514 204.009 27.1469C204.222 27.7735 204.328 28.4534 204.328 29.1866V29.4027C204.328 30.1359 204.222 30.8158 204.009 31.4424C203.796 32.069 203.485 32.6173 203.078 33.0873C202.671 33.551 202.175 33.9144 201.592 34.1775C201.009 34.4345 200.347 34.563 199.608 34.563C198.861 34.563 198.194 34.4345 197.606 34.1775C197.022 33.9144 196.527 33.551 196.118 33.0873C195.711 32.6173 195.402 32.069 195.188 31.4424C194.975 30.8158 194.868 30.1359 194.868 29.4027ZM197.135 29.1866V29.4027C197.135 29.8602 197.182 30.2925 197.275 30.6998C197.37 31.1072 197.517 31.4643 197.718 31.7713C197.918 32.0785 198.175 32.3196 198.489 32.4951C198.802 32.6705 199.175 32.7583 199.608 32.7583C200.028 32.7583 200.391 32.6705 200.699 32.4951C201.012 32.3196 201.269 32.0785 201.47 31.7713C201.671 31.4643 201.818 31.1072 201.911 30.6998C202.012 30.2925 202.063 29.8602 202.063 29.4027V29.1866C202.063 28.7353 202.012 28.3092 201.911 27.9082C201.818 27.501 201.668 27.1406 201.46 26.8272C201.259 26.514 201.003 26.2695 200.69 26.0941C200.382 25.9124 200.016 25.8215 199.589 25.8215C199.163 25.8215 198.793 25.9124 198.479 26.0941C198.172 26.2695 197.918 26.514 197.718 26.8272C197.517 27.1406 197.37 27.501 197.275 27.9082C197.182 28.3092 197.135 28.7353 197.135 29.1866ZM205.796 29.4027V29.1866C205.796 28.4534 205.902 27.7735 206.115 27.1469C206.329 26.514 206.635 25.9656 207.037 25.502C207.444 25.032 207.939 24.6686 208.523 24.4116C209.112 24.1484 209.777 24.0169 210.516 24.0169C211.263 24.0169 211.928 24.1484 212.511 24.4116C213.1 24.6686 213.598 25.032 214.005 25.502C214.413 25.9656 214.723 26.514 214.936 27.1469C215.149 27.7735 215.257 28.4534 215.257 29.1866V29.4027C215.257 30.1359 215.149 30.8158 214.936 31.4424C214.723 32.069 214.413 32.6173 214.005 33.0873C213.598 33.551 213.102 33.9144 212.519 34.1775C211.937 34.4345 211.275 34.563 210.535 34.563C209.79 34.563 209.121 34.4345 208.532 34.1775C207.949 33.9144 207.454 33.551 207.047 33.0873C206.639 32.6173 206.329 32.069 206.115 31.4424C205.902 30.8158 205.796 30.1359 205.796 29.4027ZM208.062 29.1866V29.4027C208.062 29.8602 208.109 30.2925 208.204 30.6998C208.297 31.1072 208.444 31.4643 208.645 31.7713C208.846 32.0785 209.103 32.3196 209.416 32.4951C209.729 32.6705 210.103 32.7583 210.535 32.7583C210.955 32.7583 211.319 32.6705 211.626 32.4951C211.94 32.3196 212.197 32.0785 212.397 31.7713C212.597 31.4643 212.745 31.1072 212.84 30.6998C212.94 30.2925 212.99 29.8602 212.99 29.4027V29.1866C212.99 28.7353 212.94 28.3092 212.84 27.9082C212.745 27.501 212.595 27.1406 212.388 26.8272C212.188 26.514 211.93 26.2695 211.617 26.0941C211.31 25.9124 210.943 25.8215 210.516 25.8215C210.09 25.8215 209.721 25.9124 209.407 26.0941C209.099 26.2695 208.846 26.514 208.645 26.8272C208.444 27.1406 208.297 27.501 208.204 27.9082C208.109 28.3092 208.062 28.7353 208.062 29.1866ZM223.673 24.2048H225.732V34.093C225.732 35.0079 225.538 35.7849 225.149 36.424C224.76 37.0633 224.218 37.5489 223.522 37.881C222.827 38.2194 222.021 38.3885 221.106 38.3885C220.717 38.3885 220.285 38.3321 219.807 38.2194C219.337 38.1066 218.88 37.9248 218.434 37.6742C217.996 37.4298 217.63 37.1071 217.334 36.706L218.397 35.3713C218.76 35.8038 219.162 36.1202 219.601 36.3206C220.04 36.5212 220.501 36.6215 220.984 36.6215C221.504 36.6215 221.945 36.5244 222.31 36.3301C222.678 36.1421 222.964 35.8633 223.165 35.4936C223.365 35.1238 223.465 34.6727 223.465 34.14V26.5077L223.673 24.2048ZM216.76 29.4027V29.2053C216.76 28.4346 216.855 27.7328 217.042 27.0999C217.231 26.4606 217.5 25.9124 217.851 25.455C218.203 24.9913 218.628 24.6373 219.13 24.3928C219.633 24.1421 220.199 24.0169 220.832 24.0169C221.491 24.0169 222.052 24.1359 222.516 24.3741C222.986 24.6121 223.379 24.9536 223.691 25.3986C224.004 25.8372 224.249 26.3636 224.425 26.9776C224.607 27.5855 224.742 28.2623 224.83 29.008V29.6377C224.747 30.3645 224.61 31.0288 224.416 31.6304C224.222 32.2319 223.965 32.7521 223.644 33.1907C223.325 33.6293 222.93 33.9677 222.46 34.2059C221.996 34.4439 221.447 34.563 220.814 34.563C220.192 34.563 219.633 34.4345 219.13 34.1775C218.635 33.9207 218.209 33.5604 217.851 33.0967C217.5 32.633 217.231 32.0878 217.042 31.4612C216.855 30.8283 216.76 30.1421 216.76 29.4027ZM219.027 29.2053V29.4027C219.027 29.8664 219.071 30.2988 219.159 30.6998C219.253 31.1009 219.393 31.4549 219.582 31.7619C219.776 32.0628 220.021 32.3008 220.315 32.4763C220.616 32.6455 220.971 32.7301 221.378 32.7301C221.911 32.7301 222.347 32.6173 222.685 32.3917C223.03 32.1662 223.293 31.8622 223.475 31.4799C223.663 31.0915 223.795 30.6591 223.87 30.1829V28.4816C223.832 28.1119 223.754 27.7672 223.634 27.4476C223.522 27.1281 223.369 26.8492 223.174 26.6111C222.98 26.3667 222.735 26.1788 222.44 26.0472C222.146 25.9093 221.798 25.8404 221.396 25.8404C220.989 25.8404 220.635 25.9281 220.334 26.1035C220.033 26.279 219.785 26.5202 219.591 26.8272C219.403 27.1343 219.263 27.4915 219.168 27.8988C219.074 28.3062 219.027 28.7416 219.027 29.2053ZM230.509 19.9375V34.375H228.233V19.9375H230.509ZM237.478 34.563C236.725 34.563 236.046 34.4409 235.438 34.1964C234.835 33.9457 234.321 33.598 233.894 33.153C233.474 32.7082 233.151 32.1849 232.926 31.5833C232.7 30.9818 232.587 30.3332 232.587 29.6377V29.2617C232.587 28.4659 232.704 27.7453 232.935 27.0999C233.168 26.4544 233.49 25.9029 233.904 25.4456C234.318 24.9818 234.808 24.6278 235.372 24.3834C235.936 24.1391 236.546 24.0169 237.205 24.0169C237.932 24.0169 238.569 24.1391 239.113 24.3834C239.659 24.6278 240.111 24.9725 240.468 25.4174C240.832 25.856 241.101 26.3792 241.277 26.9871C241.459 27.5949 241.55 28.2653 241.55 28.9985V29.9666H233.688V28.3405H239.311V28.1619C239.299 27.7546 239.218 27.3724 239.067 27.0153C238.922 26.6581 238.701 26.3699 238.399 26.1506C238.098 25.9311 237.696 25.8215 237.196 25.8215C236.819 25.8215 236.484 25.9029 236.189 26.0659C235.901 26.2226 235.659 26.4513 235.465 26.7521C235.271 27.0529 235.12 27.4163 235.014 27.8424C234.913 28.2623 234.864 28.7353 234.864 29.2617V29.6377C234.864 30.0827 234.923 30.4961 235.041 30.8784C235.168 31.2544 235.35 31.5833 235.588 31.8654C235.826 32.1474 236.114 32.3698 236.453 32.5328C236.791 32.6894 237.176 32.7678 237.61 32.7678C238.155 32.7678 238.64 32.658 239.067 32.4387C239.493 32.2194 239.863 31.9092 240.177 31.5081L241.371 32.6644C241.152 32.9839 240.866 33.291 240.515 33.5855C240.164 33.8737 239.735 34.1087 239.226 34.2904C238.725 34.4721 238.142 34.563 237.478 34.563Z" fill="#1F1F1F"/>
<path d="M232.487 0.6875H27.5132C12.698 0.6875 0.687832 12.6919 0.687832 27.5C0.687832 42.3081 12.698 54.3125 27.5132 54.3125H232.487C247.302 54.3125 259.312 42.3081 259.312 27.5C259.312 12.6919 247.302 0.6875 232.487 0.6875Z" stroke="#747775"/>
</g>
<defs>
<clipPath id="clip0_2377_8385">
<rect width="260" height="55" fill="white"/>
</clipPath>
</defs>
</svg>
